#!OML:ASF F:\VICON\USERDATA\INSTALL\rory3\rory3.ASF
:FULLY-SPECIFIED
:DEGREES
620
root 1.3009 20.0585 -8.17882 -153.469 -27.0692 -192.162
lowerback -10.2667 -10.7883 -6.21127
upperback -9.82151 -15.5165 -1.74896
thorax -3.80325 -8.15147 0.381122
lowerneck -14.8619 -0.301625 2.25953
upperneck 35.9757 2.48349 -0.321169
head 15.038 2.5475 0.21501
rclavicle 1.33608e-013 7.196e-014
rhumerus -70.8989 -51.7506 66.6678
rradius 14.2948
rwrist 67.7678
rhand -5.6233 0.0716217
rfingers 7.12502
rthumb 20.1944 -28.8987
lclavicle 1.33608e-013 7.196e-014
lhumerus 56.6879 -59.7238 -41.0591
lradius 21.6342
lwrist -29.0351
lhand 7.30417 34.8612
lfingers 7.12502
lthumb 32.5652 61.9522
rfemur -61.0654 -0.850725 339.555
rtibia 44.1161
rfoot 6.76552 -38.8601
rtoes 40.345
lfemur 5.00555 -12.2923 -9.60664
ltibia 21.9162
lfoot -33.8323 40.9583
ltoes 41.5107
621
root 1.30342 19.817 -8.34023 -154.192 -26.6901 -191.602
lowerback -9.87344 -10.4306 -5.56988
upperback -9.58469 -15.0276 -1.78469
thorax -3.91915 -7.9053 0.141218
lowerneck -15.6022 -0.317122 2.11279
upperneck 36.1148 2.44001 -0.340768
head 15.2769 2.48121 0.234268
rclavicle -6.01324e-014 -4.69132e-014
rhumerus -74.3435 -51.26 69.1312
rradius 14.1434
rwrist 68.809
rhand -5.86087 0.48254
rfingers 7.12502
rthumb 19.9661 -28.5117
lclavicle -6.01324e-014 -4.69132e-014
lhumerus 52.3549 -60.8166 -36.2553
lradius 21.5311
lwrist -30.1073
lhand 7.50189 34.2034
lfingers 7.12502
lthumb 32.7533 61.2553
rfemur -60.3144 -3.00298 346.887
rtibia 46.1172
rfoot 15.5376 -34.2125
rtoes 31.9947
lfemur 2.75403 -11.3998 -10.3126
ltibia 24.9442
lfoot -29.5372 39.8751
ltoes 37.9478
622
root 1.34763 19.512 -8.53484 -154.56 -25.7249 -191.353
lowerback -10.1315 -10.0762 -6.14839
upperback -9.47666 -14.4925 -1.87917
thorax -3.57889 -7.62135 0.307925
lowerneck -15.4437 -0.394829 2.13959
upperneck 36.1855 2.34324 -0.274648
head 15.2711 2.47267 0.244085
rclavicle 7.83957e-014 6.36111e-014
rhumerus -75.5956 -50.0886 68.9011
rradius 13.9004
rwrist 68.337
rhand -6.25009 -0.00209776
rfingers 7.12502
rthumb 19.5919 -29.0349
lclavicle 7.83957e-014 6.36111e-014
lhumerus 45.203 -61.0769 -28.532
lradius 21.4665
lwrist -32.853
lhand 7.92345 33.2679
lfingers 7.12502
lthumb 33.1542 60.2354
rfemur -59.9292 -4.11322 352.76
rtibia 48.2148
rfoot 18.4669 -31.7125
rtoes 26.904
lfemur 0.480458 -10.0676 -11.2524
ltibia 27.7579
lfoot -25.7513 38.3046
ltoes 34.0664
623
root 1.37592 19.2536 -8.7243 -154.797 -24.7767 -191.244
lowerback -10.4981 -9.68137 -6.66135
upperback -9.15686 -13.8205 -1.90393
thorax -2.95947 -7.25983 0.484154
lowerneck -15.9492 -0.529904 1.54803
upperneck 36.1905 2.14306 0.0356556
head 15.3793 2.32582 0.4469
rclavicle 4.4652e-014 3.22031e-014
rhumerus -77.6744 -49.0875 69.7057
rradius 13.6457
rwrist 68.0767
rhand -6.41922 0.00630754
rfingers 7.12502
rthumb 19.4293 -29.043
lclavicle 4.4652e-014 3.22031e-014
lhumerus 39.6082 -61.2653 -22.5621
lradius 21.5925
lwrist -33.7223
lhand 8.09816 32.752
lfingers 7.12502
lthumb 33.3204 59.6841
rfemur -59.1642 -5.15594 357.791
rtibia 50.2044
rfoot 18.6173 -31.0578
rtoes 24.7053
lfemur -1.75075 -8.63598 -12.3852
ltibia 30.2479
lfoot -22.432 36.6935
ltoes 29.1005
624
root 1.38363 18.9787 -8.88911 -155.227 -24.0313 -191.022
lowerback -10.3842 -9.2908 -6.50403
upperback -8.96874 -13.2772 -2.0239
thorax -2.89828 -6.98554 0.347213
lowerneck -16.2226 -0.548527 1.26484
upperneck 36.0529 2.09214 0.145446
head 15.3723 2.25583 0.529673
rclavicle -3.45637e-014 -1.94809e-014
rhumerus -78.7538 -47.9575 69.3508
rradius 13.3629
rwrist 67.4994
rhand -6.54433 0.533362
rfingers 7.12502
rthumb 19.309 -28.528
lclavicle -3.45637e-014 -1.94809e-014
lhumerus 32.4071 -60.6938 -15.1427
lradius 21.6237
lwrist -35.0213
lhand 7.69183 32.0429
lfingers 7.12502
lthumb 32.934 59.0571
rfemur -57.7639 -6.63597 362.412
rtibia 51.8552
rfoot 22.4038 -28.4392
rtoes 16.0986
lfemur -3.67341 -7.37832 -13.4279
ltibia 32.5525
lfoot -20.9314 34.8149
ltoes 23.7601
625
root 1.3732 18.7035 -9.04725 -155.947 -23.6879 -190.609
lowerback -10.0267 -8.93671 -5.71051
upperback -8.7868 -12.8451 -2.21883
thorax -3.10507 -6.78763 -0.148542
lowerneck -16.1228 -0.500636 1.24181
upperneck 35.7586 2.12054 0.125055
head 15.2065 2.24397 0.517872
rclavicle 1.57313e-013 2.50469e-014
rhumerus -77.0448 -46.1045 65.3496
rradius 13.0061
rwrist 64.404
rhand -6.65886 0.202617
rfingers 7.12502
rthumb 19.1989 -28.8697
lclavicle 1.57313e-013 2.50469e-014
lhumerus 23.6276 -58.1384 -6.04506
lradius 21.4981
lwrist -37.9665
lhand 7.23485 30.9886
lfingers 7.12502
lthumb 32.4992 58.0931
rfemur -55.5538 -7.98494 366.314
rtibia 53.0807
rfoot 23.8031 -28.7253
rtoes 21.1515
lfemur -5.26247 -6.39958 -14.1833
ltibia 34.7304
lfoot -20.7916 33.1971
ltoes 18.7398
626
root 1.40817 18.3981 -9.23198 -156.617 -22.9125 -190.144
lowerback -9.92119 -8.57502 -5.7831
upperback -8.57716 -12.3066 -2.22314
thorax -2.935 -6.49888 -0.0711454
lowerneck -15.7 -0.470817 1.02809
upperneck 35.2095 2.14069 0.15911
head 14.844 2.20494 0.549152
rclavicle 1.91231e-013 5.725e-014
rhumerus -79.0027 -45.5595 66.2604
rradius 12.8194
rwrist 64.6387
rhand -6.65947 -0.350231
rfingers 7.12502
rthumb 19.1983 -29.4226
lclavicle 1.91231e-013 5.725e-014
lhumerus 17.1694 -56.6198 0.190711
lradius 21.4086
lwrist -38.5285
lhand 5.51422 30.3409
lfingers 7.12502
lthumb 30.8603 57.7689
rfemur -53.2632 -7.00618 368.865
rtibia 53.8281
rfoot 26.7787 -26.0462
rtoes 13.776
lfemur -6.94707 -5.28063 -14.8101
ltibia 37.096
lfoot -22.0393 31.6613
ltoes 16.431
627
root 1.42942 18.0716 -9.38949 -157.244 -22.2485 -189.767
lowerback -9.79142 -8.30395 -5.64103
upperback -7.86149 -11.767 -2.16853
thorax -2.25884 -6.19058 -0.098482
lowerneck -17.0031 -0.333196 0.464926
upperneck 34.8299 2.15892 0.409903
head 14.9579 2.07133 0.743563
rclavicle -1.44989e-013 -3.37934e-014
rhumerus -88.5915 -46.6646 76.6791
rradius 12.8794
rwrist 70.6449
rhand -6.7085 -0.132595
rfingers 7.12502
rthumb 19.1512 -29.2097
lclavicle -1.44989e-013 -3.37934e-014
lhumerus 12.0949 -55.1529 4.80267
lradius 21.2843
lwrist -37.0525
lhand 3.01763 30.0988
lfingers 7.12502
lthumb 28.4774 57.9512
rfemur -50.8145 -5.69683 370.726
rtibia 54.3251
rfoot 22.2411 -22.1541
rtoes 11.2005
lfemur -8.53841 -4.50496 -15.51
ltibia 39.3886
lfoot -25.2069 29.9899
ltoes 14.796
628
root 1.41253 17.7308 -9.52883 -157.972 -22.2862 -189.272
lowerback -9.35478 -8.06939 -4.50453
upperback -7.39623 -11.4282 -2.2025
thorax -2.20736 -6.02147 -0.656679
lowerneck -17.7767 -0.204351 -0.0961703
upperneck 34.5055 2.28487 0.647162
head 14.9743 2.02116 0.952678
rclavicle -1.4538e-013 -6.79844e-014
rhumerus -93.3234 -46.26 81.2281
rradius 12.8329
rwrist 72.8482
rhand -6.74946 -0.114591
rfingers 7.12502
rthumb 19.1118 -29.1956
lclavicle -1.4538e-013 -6.79844e-014
lhumerus 6.80891 -52.4362 9.76629
lradius 21.1308
lwrist -37.787
lhand 1.85375 29.4838
lfingers 7.12502
lthumb 27.3647 57.5172
rfemur -47.8706 -5.62346 372.761
rtibia 54.5453
rfoot 12.449 -18.1953
rtoes 2.83786
lfemur -9.89628 -4.23726 -15.9062
ltibia 41.4402
lfoot -27.5961 29.4943
ltoes 15.1809
629
root 1.43282 17.4094 -9.71471 -158.297 -21.7039 -189.227
lowerback -9.65689 -7.86308 -4.68877
upperback -6.87152 -11.0078 -2.19555
thorax -1.45873 -5.78575 -0.623096
lowerneck -18.2485 -0.0379742 -0.480801
upperneck 33.7938 2.43097 0.66943
head 14.745 1.9611 1.02686
rclavicle 1.81645e-013 6.67916e-014
rhumerus -94.0654 -45.9084 80.283
rradius 12.6484
rwrist 71.7346
rhand -6.37045 -0.994713
rfingers 7.12502
rthumb 19.4762 -30.0393
lclavicle 1.81645e-013 6.67916e-014
lhumerus 2.07688 -49.0428 14.0044
lradius 21.0762
lwrist -39.6679
lhand 1.58706 28.7378
lfingers 7.12502
lthumb 27.1096 56.8111
rfemur -45.316 -5.30867 374.35
rtibia 55.1126
rfoot 2.62109 -17.3053
rtoes -9.31859
lfemur -11.2268 -3.67708 -16.7397
ltibia 43.0814
lfoot -29.3473 29.2347
ltoes 15.0766
630
root 1.4352 17.1578 -9.90268 -158.825 -21.314 -188.941
lowerback -10.0731 -7.77884 -4.38359
upperback -5.86444 -10.679 -2.08743
thorax -0.203084 -5.58452 -0.80971
lowerneck -19.2051 0.270799 -0.874047
upperneck 32.6998 2.69437 0.597647
head 14.4549 1.89228 1.07277
rclavicle 1.66855e-014 2.78299e-014
rhumerus -100.379 -46.2196 85.7173
rradius 12.7599
rwrist 75.008
rhand -5.47821 -1.87256
rfingers 7.12502
rthumb 20.3339 -30.8281
lclavicle 1.66855e-014 2.78299e-014
lhumerus -1.84665 -45.2652 17.3675
lradius 21.0253
lwrist -41.0021
lhand 1.0194 28.4151
lfingers 7.12502
lthumb 26.5664 56.5719
rfemur -43.3878 -4.14878 375.34
rtibia 55.7317
rfoot -6.01346 -19.9854
rtoes -6.30885
lfemur -12.2702 -3.22533 -17.3075
ltibia 44.5569
lfoot -30.7735 29.9059
ltoes 14.6291
631
root 1.44074 16.9108 -10.0821 -159.258 -20.9208 -188.762
lowerback -8.96228 -7.50098 -3.82503
upperback -6.08741 -10.432 -2.11015
thorax -1.13428 -5.46063 -0.900471
lowerneck -18.8739 0.528556 -1.21176
upperneck 32.1741 3.15667 0.51168
head 14.1385 2.0252 1.155
rclavicle 2.84138e-014 2.34566e-014
rhumerus -100.507 -46.4319 84.3209
rradius 12.7086
rwrist 75.0235
rhand -4.77354 -2.78569
rfingers 7.12502
rthumb 21.011 -31.6675
lclavicle 2.84138e-014 2.34566e-014
lhumerus -6.29811 -42.8317 20.99
lradius 20.9328
lwrist -42.8452
lhand 0.616732 28.0815
lfingers 7.12502
lthumb 26.181 56.2961
rfemur -42.3666 -2.15508 375.629
rtibia 56.6069
rfoot -13.1155 -22.5653
rtoes -4.62016
lfemur -13.4484 -2.92373 -17.8861
ltibia 46.2042
lfoot -32.1939 29.8777
ltoes 14.6372
